# xmcd CD database file
#
# Track frame offsets:
#	150
#	18252
#	33197
#	49182
#	64190
#	80795
#	97742
#	116817
#	131215
#	142642
#	158172
#	174675
#	192200
#	209102
#	225540
#	244607
#
# Disc length: 3462 seconds
#
# Revision: 0
# Processed by: cddbd v1.5.1PL0 Copyright (c) Steve Scherf et al.
# Submitted via: CDex 1.51
#
DISCID=d80d8410
DTITLE=Various Artist - 懐メロ珠玉集　1
DYEAR=1900
DGENRE=演歌
TTITLE0=影を慕いて　/　藤山一郎
TTITLE1=酒は涙か溜息か　/　藤山一郎
TTITLE2=人妻椿　/　三島敏夫
TTITLE3=旅の夜風　/　霧島昇
TTITLE4=新妻鏡　/　霧島昇
TTITLE5=三百六十五夜　/　霧島昇
TTITLE6=湯の町エレジー　/　近江俊郎
TTITLE7=ゲイシャ・ワルツ　/　神楽坂はん子
TTITLE8=トンコ節　/　久保幸江
TTITLE9=逢いたかったぜ　/　岡春夫
TTITLE10=柿の木坂の家　/　青木光一
TTITLE11=小島通いの郵便船　/　青木光一
TTITLE12=雨に咲く花　/　井上ひろし
TTITLE13=どうせひろった恋だもの　/　初代コロムビア・ローズ
TTITLE14=船頭可愛や　/　音丸
TTITLE15=湖畔の宿　/　高峰三枝子
EXTD=
EXTT0=
EXTT1=
EXTT2=
EXTT3=
EXTT4=
EXTT5=
EXTT6=
EXTT7=
EXTT8=
EXTT9=
EXTT10=
EXTT11=
EXTT12=
EXTT13=
EXTT14=
EXTT15=
PLAYORDER=
